<svg width="80" height="81" viewBox="0 0 80 81" fill="none" xmlns="http://www.w3.org/2000/svg">
<path fill-rule="evenodd" clip-rule="evenodd" d="M29.9864 7.61633C32.494 5.49874 36.1305 4.29214 40 4.29214C43.8695 4.29214 47.506 5.49874 50.0136 7.61633H53.3333C57.0152 7.61633 60 10.5929 60 14.2647L63.3333 14.2647C67.0152 14.2647 70 17.2413 70 20.913V70.7757C70 74.4475 67.0152 77.4241 63.3333 77.4241H16.6667C12.9848 77.4241 10 74.4475 10 70.7757V20.913C10 17.2413 12.9848 14.2647 16.6667 14.2647L20 14.2647C20 10.5929 22.9848 7.61633 26.6667 7.61633H29.9864ZM53.3333 24.2372C55.8009 24.2372 57.9554 22.9002 59.1081 20.913H63.3333V70.7757H16.6667V20.913H20.8919C22.0446 22.9002 24.1991 24.2372 26.6667 24.2372H53.3333ZM50.9765 35.1834L36.6668 49.4538L29.0239 41.8318L24.3098 46.5329L36.6668 58.856L55.6905 39.8845L50.9765 35.1834ZM32.8587 14.2647L33.8555 13.1191C34.9506 11.8604 37.298 10.9405 40 10.9405C42.702 10.9405 45.0494 11.8604 46.1445 13.1191L47.1413 14.2647H53.3333V17.5889H26.6667V14.2647H31.3378H32.8587Z" fill="#D71920"/>
</svg>
