<svg width="80" height="81" viewBox="0 0 80 81" fill="none" xmlns="http://www.w3.org/2000/svg">
<path fill-rule="evenodd" clip-rule="evenodd" d="M3.33325 40.8581C3.33325 61.053 19.7495 77.4241 39.9999 77.4241C60.2504 77.4241 76.6666 61.053 76.6666 40.8581C76.6666 20.6633 60.2504 4.29214 39.9999 4.29214C19.7495 4.29214 3.33325 20.6633 3.33325 40.8581ZM69.9999 40.8581C69.9999 57.3812 56.5685 70.7758 39.9999 70.7758C23.4314 70.7758 9.99992 57.3812 9.99992 40.8581C9.99992 24.3351 23.4314 10.9405 39.9999 10.9405C56.5685 10.9405 69.9999 24.3351 69.9999 40.8581ZM40.1068 64.1274C28.9152 64.1274 22.6879 58.2489 22.6879 47.5065V44.1823H57.0525L57.1447 47.4119C57.4524 58.1919 51.3343 64.1274 40.1068 64.1274ZM50.2916 50.8307C49.5086 55.4696 46.363 57.479 40.1068 57.479C33.8541 57.479 30.6058 55.4521 29.6557 50.8307H50.2916ZM46.6666 27.5614H56.6666V34.2098H46.6666V27.5614ZM33.3333 27.5614H23.3333V34.2098H33.3333V27.5614Z" fill="#D71920"/>
</svg>
